<svg width="160" height="100" viewBox="0 0 160 100" fill="none" xmlns="http://www.w3.org/2000/svg">
<g clip-path="url(#clip0_1639_26709)">
<path d="M16.9666 30H0V71.1304L16.9666 30Z" fill="black"/>
<path d="M28.9051 30H45.8495V71.1304L28.9051 30Z" fill="black"/>
<path d="M22.9369 45.1594L33.7359 71.1307H26.6509L23.4234 62.862H15.5203L22.9369 45.1594Z" fill="black"/>
<path d="M73.5285 56.1569L75.529 61.9719C75.5953 62.1175 75.6948 62.1847 75.8717 62.1847H79.7183C79.9282 62.1847 79.9614 62.0839 79.9282 61.8711L71.981 39.4963C71.9478 39.3171 71.9146 39.2834 71.7378 39.2834H66.9628C66.8302 39.2834 66.7528 39.3843 66.7528 39.5299C66.6864 40.7064 66.587 41.0649 66.4433 41.4122L59.3583 61.8373C59.3251 62.084 59.4024 62.1847 59.6014 62.1847H63.0389C63.249 62.1847 63.3484 62.1175 63.4258 61.9047L65.3158 56.1569H73.5285ZM66.4101 52.3587C67.4491 49.1767 68.8197 45.0984 69.3724 42.7679H69.4056C70.0909 45.2104 71.7046 50.0506 72.4341 52.3587H66.4101Z" fill="black"/>
<path d="M90.1463 62.5318C92.2131 62.5318 94.4128 62.1508 96.6456 61.176C96.8224 61.1088 96.8556 61.0303 96.8556 60.8622C96.7892 60.2348 96.7118 59.3274 96.7118 58.6326V37.5689C96.7118 37.4344 96.7118 37.3672 96.546 37.3672H92.799C92.6553 37.3672 92.5891 37.4344 92.5891 37.6137V44.7507C92.0032 44.6835 91.5942 44.6499 91.1079 44.6499C85.0619 44.6499 81.3479 48.6946 81.3479 53.7477C81.3479 59.6074 85.1613 62.5318 90.1463 62.5318ZM92.5891 58.6326C91.97 58.8343 91.2847 58.9128 90.5884 58.9128C87.8472 58.9128 85.6035 57.3442 85.6035 53.5348C85.6035 50.1623 87.9135 48.168 90.9753 48.168C91.5942 48.168 92.1358 48.2352 92.5891 48.4144V58.6326Z" fill="black"/>
<path d="M108.807 44.6506C103.645 44.6506 100.451 48.6617 100.451 53.6139C100.451 58.0396 102.993 62.5324 108.73 62.5324C113.582 62.5324 116.986 58.9136 116.986 53.5019C116.986 48.729 114.102 44.6506 108.807 44.6506ZM108.597 48.1688C111.515 48.1688 112.753 50.712 112.753 53.6139C112.753 57.1993 110.929 58.9808 108.807 58.9808C106.187 58.9808 104.64 56.7512 104.64 53.5354C104.64 50.2303 106.287 48.1688 108.597 48.1688Z" fill="black"/>
<path d="M120.86 37.3672C120.716 37.3672 120.617 37.4344 120.617 37.6137V61.456C120.617 61.557 120.716 61.7362 120.86 61.7698C122.507 62.2852 124.231 62.5318 126.01 62.5318C131.106 62.5318 136.058 59.3274 136.058 52.8737C136.058 48.2016 132.897 44.6499 127.945 44.6499C126.806 44.6499 125.745 44.8292 124.817 45.1429L124.773 37.6473C124.773 37.4008 124.706 37.3672 124.463 37.3672H120.86ZM131.824 53.2995C131.824 57.1649 129.216 58.98 126.397 58.98C125.812 58.98 125.292 58.9464 124.817 58.8007V48.6273C125.358 48.4144 126.01 48.2352 127.215 48.2352C129.934 48.2352 131.824 49.983 131.824 53.2995Z" fill="black"/>
<path d="M150.042 54.5551C151.722 54.5551 153.104 54.5215 153.579 54.4095C153.756 54.3759 153.822 54.3085 153.855 54.163C153.955 53.7821 153.999 52.9865 153.999 52.0117C153.999 48.6952 152.032 44.6506 146.947 44.6506C141.752 44.6506 138.867 48.9419 138.867 53.7821C138.867 58.0732 141.1 62.5324 147.356 62.5324C149.699 62.5324 151.214 62.1516 152.518 61.524C152.651 61.4568 152.717 61.3447 152.717 61.1432V58.2413C152.717 58.0732 152.617 58.0396 152.518 58.1067C151.214 58.667 149.799 58.9472 148.252 58.9472C144.748 58.9472 143.156 56.9865 143.057 54.5551H150.042ZM143.056 51.5524C143.333 49.8493 144.394 48.0007 146.77 48.0007C149.39 48.0007 150.075 50.2303 150.075 51.2386C150.075 51.2722 150.075 51.4179 150.075 51.5189C149.931 51.5524 149.489 51.5524 148.185 51.5524H143.056Z" fill="black"/>
</g>
<defs>
<clipPath id="clip0_1639_26709">
<rect width="154" height="41.1304" fill="white" transform="translate(0 30)"/>
</clipPath>
</defs>
</svg>
