<svg width="160" height="100" viewBox="0 0 160 100" fill="none" xmlns="http://www.w3.org/2000/svg">
<g clip-path="url(#clip0_1639_26737)">
<path d="M80.0036 14.561C70.2209 14.561 61.3613 18.5291 54.947 24.9484C48.5301 31.353 44.5645 40.2174 44.5645 50.0051C44.5645 59.7854 48.5301 68.6437 54.947 75.0507C61.3613 81.4615 70.2209 85.4368 80.0036 85.4368C89.7889 85.4368 98.6533 81.4615 105.058 75.0507C111.472 68.6437 115.429 59.7854 115.429 50.0051C115.429 40.2174 111.472 31.353 105.058 24.9484C98.6533 18.5291 89.7889 14.561 80.0036 14.561ZM80.0036 10.2668C101.945 10.2668 119.735 28.0591 119.735 50.0051C119.735 71.9437 101.945 89.7335 80.0036 89.7335C58.065 89.7335 40.2679 71.9437 40.2679 50.0051C40.2679 28.0591 58.065 10.2668 80.0036 10.2668Z" fill="black"/>
<path d="M61.2119 49.6807C61.2119 47.365 59.6754 46.0497 57.5003 46.0497H56.169V53.3142H57.4624C59.485 53.3142 61.2119 52.2149 61.2119 49.6807ZM84.8921 52.2943L75.0849 60.0167L66.1216 52.96C64.8283 56.067 61.7029 58.225 58.1036 58.225H50.4325V41.1363H58.1036C62.1254 41.1363 65.0236 43.6937 66.1191 46.4186L75.0849 39.369L78.4057 41.9827L70.1886 48.441L71.7677 49.677L79.9824 43.2223L83.3081 45.8286L75.0923 52.2943L76.669 53.5327L84.8921 47.0659V41.1363H90.8534V53.2372H96.8V58.2459H84.8921V52.2943ZM104.351 53.2396H110.296V58.2459H98.3841V41.1363H104.351V53.2396Z" fill="black"/>
</g>
<defs>
<clipPath id="clip0_1639_26737">
<rect width="80" height="80" fill="white" transform="translate(40 10)"/>
</clipPath>
</defs>
</svg>
