<svg width="160" height="100" viewBox="0 0 160 100" fill="none" xmlns="http://www.w3.org/2000/svg">
<g clip-path="url(#clip0_1639_26755)">
<path d="M111.078 52.0136L111.094 71.981C111.094 75.1807 113.712 78.0682 116.922 78.2603C120.53 78.4767 123.522 75.6333 123.522 72.0932V37.1804C123.522 33.8805 120.965 31.0813 117.655 30.9051C115.589 30.793 113.958 31.682 112.512 33.1356L90.7497 54.7768C89.4407 56.0944 88.6273 57.8966 88.6273 59.8949L88.6434 74.3278L111.078 52.0136Z" fill="#5F5F5F"/>
<path d="M73.97 37.0767C73.97 33.6647 76.7527 30.8975 80.1838 30.8975C83.6148 30.8975 86.3975 33.6647 86.3975 37.0767V72.0934C86.3975 75.5054 83.6148 78.2727 80.1838 78.2727C76.7527 78.2727 73.97 75.5054 73.97 72.0934V37.0767Z" fill="black"/>
<path d="M80.1838 28.3584C83.6156 28.3584 86.3975 25.5919 86.3975 22.1792C86.3975 18.7665 83.6156 16 80.1838 16C76.7519 16 73.97 18.7665 73.97 22.1792C73.97 25.5919 76.7519 28.3584 80.1838 28.3584Z" fill="black"/>
<path d="M49.4438 57.1561L49.4277 37.1887C49.4277 33.9891 46.81 31.1017 43.6004 30.9094C39.9921 30.6892 37 33.5365 37 37.0767V71.9894C37 75.2892 39.5572 78.0884 42.8675 78.2646C44.9334 78.3769 46.5644 77.4879 48.0101 76.0342L69.7727 54.3929C71.0813 53.0754 71.8949 51.2733 71.8949 49.2748L71.8786 34.8419L49.4438 57.1561Z" fill="#6A6A6A"/>
</g>
<defs>
<clipPath id="clip0_1639_26755">
<rect width="96" height="62.4" fill="white" transform="translate(37 16)"/>
</clipPath>
</defs>
</svg>
