<svg width="160" height="100" viewBox="0 0 160 100" fill="none" xmlns="http://www.w3.org/2000/svg">
<path fill-rule="evenodd" clip-rule="evenodd" d="M64.9707 33.3849H59.2479V63.0494H77.4462V57.606H64.9707V33.3849Z" fill="black"/>
<path fill-rule="evenodd" clip-rule="evenodd" d="M89.111 57.9432C85.7093 57.919 83.3021 55.3804 83.3396 51.8568C83.3768 48.3499 85.7659 45.9191 89.1722 45.9225C92.6092 45.9257 94.9769 48.3927 94.9607 51.9541C94.9443 55.4996 92.5337 57.9676 89.111 57.9432ZM89.1685 40.9901C82.813 40.9677 77.9466 45.7061 77.9478 51.916C77.9488 58.1375 82.7894 62.8691 89.1485 62.8647C95.5454 62.8602 100.357 58.1688 100.355 51.9371C100.354 45.6783 95.5864 41.0125 89.1685 40.9901Z" fill="black"/>
<mask id="mask0_1639_26786" style="mask-type:alpha" maskUnits="userSpaceOnUse" x="101" y="40" width="23" height="35">
<path d="M101.411 74.6573H123.819V40.9751H101.411V74.6573Z" fill="white"/>
</mask>
<g mask="url(#mask0_1639_26786)">
<path fill-rule="evenodd" clip-rule="evenodd" d="M118.418 52.0187C118.373 55.5291 115.976 57.9691 112.574 57.9446C109.172 57.9204 106.765 55.382 106.803 51.8586C106.84 48.3515 109.229 45.9207 112.635 45.9239C116.048 45.9273 118.401 48.3624 118.418 51.8834C118.418 51.9286 118.418 51.9737 118.418 52.0187ZM118.413 42.4792C116.748 41.5401 114.787 40.9989 112.631 40.9915C106.276 40.9691 101.41 45.7075 101.411 51.9176C101.412 58.1391 106.252 62.8707 112.612 62.8663C114.774 62.8647 116.747 62.3173 118.423 61.3663C118.423 62.8147 118.424 63.729 118.424 63.729C118.408 67.2752 115.997 69.7358 112.574 69.7358C108.179 69.7358 106.246 65.4929 106.246 65.4929L102.219 67.928C102.219 67.928 104.533 74.6575 112.612 74.6575C119.008 74.6529 123.82 69.9614 123.819 63.7295V40.9751H118.413C118.413 40.9751 118.413 41.5353 118.413 42.4792Z" fill="black"/>
</g>
<mask id="mask1_1639_26786" style="mask-type:alpha" maskUnits="userSpaceOnUse" x="124" y="40" width="24" height="35">
<path d="M124.874 74.6575H147.282V40.9751H124.874V74.6575Z" fill="white"/>
</mask>
<g mask="url(#mask1_1639_26786)">
<path fill-rule="evenodd" clip-rule="evenodd" d="M141.881 52.0201C141.835 55.5297 139.438 57.9691 136.037 57.9446C132.635 57.9204 130.228 55.382 130.266 51.8586C130.303 48.3515 132.692 45.9207 136.098 45.9241C139.511 45.9273 141.863 48.3619 141.881 51.8822C141.881 51.9283 141.881 51.974 141.881 52.0201ZM141.876 42.4792C140.211 41.5401 138.25 40.9989 136.095 40.9915C129.739 40.9691 124.873 45.7075 124.874 51.9176C124.875 58.1391 129.715 62.8707 136.075 62.8663C138.237 62.8647 140.21 62.3175 141.886 61.3665C141.886 62.8149 141.887 63.729 141.887 63.729C141.871 67.2752 139.46 69.7358 136.037 69.7358C131.642 69.7358 129.709 65.4929 129.709 65.4929L125.682 67.928C125.682 67.928 127.996 74.6575 136.075 74.6575C142.471 74.6529 147.283 69.9614 147.282 63.7295V40.9751H141.875C141.875 40.9751 141.876 41.5355 141.876 42.4792Z" fill="black"/>
</g>
<mask id="mask2_1639_26786" style="mask-type:alpha" maskUnits="userSpaceOnUse" x="3" y="25" width="152" height="50">
<path d="M3 74.6566H155V25.1654H3V74.6566Z" fill="white"/>
</mask>
<g mask="url(#mask2_1639_26786)">
<path fill-rule="evenodd" clip-rule="evenodd" d="M149.465 62.5516H155V40.9751H149.465V62.5516Z" fill="black"/>
<path fill-rule="evenodd" clip-rule="evenodd" d="M152.232 38.8917C153.761 38.8917 155 37.6574 155 36.1348C155 34.6123 153.761 33.3782 152.232 33.3782C150.704 33.3782 149.465 34.6123 149.465 36.1348C149.465 37.6574 150.704 38.8917 152.232 38.8917Z" fill="black"/>
<path fill-rule="evenodd" clip-rule="evenodd" d="M48.6127 37.5363C47.3754 36.8886 45.9221 36.3209 45.3784 36.1155C45.1915 35.9813 45.0722 35.8928 45.0722 35.8928C45.0722 35.8928 37.7431 30.6702 34.5118 29.3157C31.2803 27.961 25.6607 25.012 19.9544 25.1716C15.4489 25.2976 12.6686 26.1309 11.6965 26.3632C10.5445 26.6385 9.77418 26.9623 11.0364 27.5546C11.459 27.7528 13.2605 28.8214 15.4478 30.0651C18.6431 31.8821 22.6615 34.073 24.4077 34.4711C26.0797 34.8522 28.8336 35.4118 32.3522 35.3375C36.3677 35.2528 38.3207 36.9594 38.7158 37.5824C37.9968 36.5658 35.2605 35.7486 31.6108 35.9733C28.0981 36.1897 25.2746 35.955 23.6303 35.4679C20.4086 34.5134 16.9558 33.0802 14.0528 31.727C12.8589 32.0892 12.1226 32.3934 11.6763 32.5818C10.6635 33.0094 9.71561 33.7771 11.1362 34.1761C12.1519 34.4615 21.6499 37.8459 24.4149 38.0105C25.9866 38.1042 28.5649 38.1966 31.7397 37.6C35.3319 36.9247 37.2027 38.3941 37.6418 38.9634C36.5201 40.661 35.7859 42.6347 35.9958 44.8284C22.863 42.5216 18.6711 41.3274 15.7056 40.8196C10.5212 39.9318 3.93534 44.307 3.12771 49.7254C2.66862 52.8044 3.45708 55.6805 5.33489 58.3415C7.41378 61.2874 10.1491 63.8283 10.547 64.3677C10.801 64.828 10.7183 66.044 10.7359 66.8622C10.7555 67.7811 11.9158 68.6068 12.5914 68.6678C12.994 68.7042 20.7696 71.1243 20.7696 71.1243L32.289 74.6564C32.289 74.6564 32.464 73.8637 32.4988 73.53C32.5871 72.6813 31.9388 70.5864 29.2394 69.8039C25.2656 68.6131 24.4847 68.3868 23.6391 68.1335C23.1839 67.997 23.5031 67.9904 24.2084 67.4353C25.4119 66.4182 26.4433 65.0461 26.9702 63.9301C29.3212 58.9508 26.3624 54.5165 26.3624 54.5165C26.3624 54.5165 28.209 56.4484 28.9028 59.8261C29.7697 64.0453 26.8985 67.393 26.8985 67.393L28.6118 67.888C28.6118 67.888 39.6795 56.7836 40.7605 55.585C41.6732 54.5726 43.2609 53.9341 44.0679 53.673C47.0199 52.8197 50.7114 51.1721 51.6503 50.5803C52.589 49.9884 53.7393 47.8984 54.0279 47.3819C54.3165 46.8655 54.6952 46.1848 54.7688 45.4157C54.7945 45.1456 53.2166 43.0488 53.2166 43.0488C53.2166 43.0488 50.6929 38.797 48.6127 37.5363Z" fill="black"/>
<path fill-rule="evenodd" clip-rule="evenodd" d="M16.4003 71.7511C15.7455 72.1389 15.5185 73.1685 16.4717 73.7243C17.3177 74.1678 20.1595 72.6166 20.1595 72.6166L17.3097 71.7217C17.3097 71.7217 16.8625 71.5343 16.4003 71.7511Z" fill="black"/>
</g>
</svg>
