<svg width="64" height="64" viewBox="0 0 64 64" fill="none" xmlns="http://www.w3.org/2000/svg">
<g clip-path="url(#clip0_1296_1864)">
<path fill-rule="evenodd" clip-rule="evenodd" d="M31.8429 8.85391C31.7548 13.8273 30.7733 16.8561 28.3747 20.6283C25.5614 25.0525 24.0377 28.3907 25.1842 33.7498C25.7343 32.7929 26.4075 31.9573 27.3077 31.1093C28.2114 32.5021 29.5631 33.4396 31.0973 34.3587C27.5531 25.1545 33.7194 22.0132 35.0256 13.8985C35.25 12.1613 35.2762 10.3705 34.9959 8.48926C33.9412 8.65357 32.9082 8.76429 31.8429 8.85391Z" fill="#E1C44A"/>
<path fill-rule="evenodd" clip-rule="evenodd" d="M36.1906 18.998L33.5585 19.8174C31.6836 27.5027 33.5749 32.4829 36.076 34.358C36.1542 32.5525 36.1924 31.8778 36.6868 30.1356C38.43 30.7648 40.0286 30.7532 41.6 30.6229C38.7408 28.605 36.7959 26.4656 36.1906 18.998Z" fill="#E1C44A"/>
<path fill-rule="evenodd" clip-rule="evenodd" d="M32 2.83008L33.8357 5.7194L36.7233 3.65845L37.4544 6.99817L40.8768 6.04591L40.4168 9.43288L43.9595 9.70061L42.3633 12.7285L45.6 14.1868L43.0596 16.4871L45.6 18.9597L42.4213 20.2563L43.9595 23.4448L40.5276 23.5813L40.8768 27.1006L37.6052 26.0622L36.7233 29.488L34.0056 27.3966L32 30.3164L30.1654 27.4271L27.2768 29.488L26.5446 26.1483L23.1233 27.1006L23.5832 23.7146L20.0405 23.4448L21.6368 20.418L18.4 18.9597L20.9405 16.6593L18.4 14.1868L21.5777 12.8902L20.0405 9.70061L23.4725 9.56517L23.1233 6.04591L26.3959 7.08426L27.2768 3.65845L29.9945 5.74879L32 2.83008Z" fill="#009C4F"/>
<path fill-rule="evenodd" clip-rule="evenodd" d="M22.4 16.5726C22.4 21.9298 26.698 26.2742 31.9995 26.2742C37.302 26.2742 41.6 21.9298 41.6 16.5726C41.6 11.2143 37.302 6.87207 31.9995 6.87207C26.698 6.87207 22.4 11.2143 22.4 16.5726Z" fill="#78C348"/>
<g filter="url(#filter0_d_1296_1864)">
<path d="M20.8 10.6869C24.5386 13.4617 27.9965 14.9567 31.7907 22.2325C37.2 13.3399 41.901 7.90965 48 4.44727C41.1118 6.85332 37.6632 9.29779 32.1179 15.9092C27.3676 12.8724 26.2318 12.5824 20.8 10.6869Z" fill="black"/>
</g>
<path d="M20.8 10.6869C24.5386 13.4617 27.9965 14.9567 31.7907 22.2325C37.2 13.3399 41.901 7.90965 48 4.44727C41.1118 6.85332 37.6632 9.29779 32.1179 15.9092C27.3676 12.8724 26.2318 12.5824 20.8 10.6869Z" fill="white"/>
</g>
<path d="M14.8125 43.4316V46.4004H13.9824V39.2617H15.9404C16.8161 39.2617 17.4622 39.4294 17.8789 39.7646C18.2988 40.0999 18.5088 40.6045 18.5088 41.2783C18.5088 42.2223 18.0303 42.8604 17.0732 43.1924L19.0117 46.4004H18.0303L16.3018 43.4316H14.8125ZM14.8125 42.7188H15.9502C16.5361 42.7188 16.9658 42.6032 17.2393 42.3721C17.5127 42.1377 17.6494 41.7878 17.6494 41.3223C17.6494 40.8503 17.5094 40.5101 17.2295 40.3018C16.9528 40.0934 16.5068 39.9893 15.8916 39.9893H14.8125V42.7188ZM24.6514 46.4004L23.7627 44.1299H20.9014L20.0225 46.4004H19.1826L22.0049 39.2324H22.7031L25.5107 46.4004H24.6514ZM23.5039 43.3828L22.6738 41.1709C22.5664 40.891 22.4557 40.5475 22.3418 40.1406C22.2702 40.4531 22.1676 40.7965 22.0342 41.1709L21.1943 43.3828H23.5039ZM31.5996 46.4004H30.8086V41.3125C30.8086 40.8893 30.8216 40.4889 30.8477 40.1113C30.7793 40.1797 30.7028 40.2513 30.6182 40.3262C30.5335 40.401 30.1462 40.7184 29.4561 41.2783L29.0264 40.7217L30.916 39.2617H31.5996V46.4004ZM39.0508 42.8213C39.0508 44.055 38.8555 44.9762 38.4648 45.585C38.0775 46.1937 37.4834 46.498 36.6826 46.498C35.9144 46.498 35.3301 46.1872 34.9297 45.5654C34.5293 44.9404 34.3291 44.0257 34.3291 42.8213C34.3291 41.5778 34.5228 40.6549 34.9102 40.0527C35.2975 39.4505 35.8883 39.1494 36.6826 39.1494C37.4574 39.1494 38.0449 39.4635 38.4453 40.0918C38.849 40.7201 39.0508 41.6299 39.0508 42.8213ZM35.1494 42.8213C35.1494 43.8597 35.2715 44.6165 35.5156 45.0918C35.7598 45.5638 36.1488 45.7998 36.6826 45.7998C37.223 45.7998 37.6136 45.5605 37.8545 45.082C38.0986 44.6003 38.2207 43.8467 38.2207 42.8213C38.2207 41.7959 38.0986 41.0456 37.8545 40.5703C37.6136 40.0918 37.223 39.8525 36.6826 39.8525C36.1488 39.8525 35.7598 40.0885 35.5156 40.5605C35.2715 41.0293 35.1494 41.7829 35.1494 42.8213ZM44.7734 42.8213C44.7734 44.055 44.5781 44.9762 44.1875 45.585C43.8001 46.1937 43.2061 46.498 42.4053 46.498C41.637 46.498 41.0527 46.1872 40.6523 45.5654C40.252 44.9404 40.0518 44.0257 40.0518 42.8213C40.0518 41.5778 40.2454 40.6549 40.6328 40.0527C41.0202 39.4505 41.611 39.1494 42.4053 39.1494C43.18 39.1494 43.7676 39.4635 44.168 40.0918C44.5716 40.7201 44.7734 41.6299 44.7734 42.8213ZM40.8721 42.8213C40.8721 43.8597 40.9941 44.6165 41.2383 45.0918C41.4824 45.5638 41.8714 45.7998 42.4053 45.7998C42.9456 45.7998 43.3363 45.5605 43.5771 45.082C43.8213 44.6003 43.9434 43.8467 43.9434 42.8213C43.9434 41.7959 43.8213 41.0456 43.5771 40.5703C43.3363 40.0918 42.9456 39.8525 42.4053 39.8525C41.8714 39.8525 41.4824 40.0885 41.2383 40.5605C40.9941 41.0293 40.8721 41.7829 40.8721 42.8213ZM50.4961 42.8213C50.4961 44.055 50.3008 44.9762 49.9102 45.585C49.5228 46.1937 48.9287 46.498 48.1279 46.498C47.3597 46.498 46.7754 46.1872 46.375 45.5654C45.9746 44.9404 45.7744 44.0257 45.7744 42.8213C45.7744 41.5778 45.9681 40.6549 46.3555 40.0527C46.7428 39.4505 47.3337 39.1494 48.1279 39.1494C48.9027 39.1494 49.4902 39.4635 49.8906 40.0918C50.2943 40.7201 50.4961 41.6299 50.4961 42.8213ZM46.5947 42.8213C46.5947 43.8597 46.7168 44.6165 46.9609 45.0918C47.2051 45.5638 47.5941 45.7998 48.1279 45.7998C48.6683 45.7998 49.0589 45.5605 49.2998 45.082C49.5439 44.6003 49.666 43.8467 49.666 42.8213C49.666 41.7959 49.5439 41.0456 49.2998 40.5703C49.0589 40.0918 48.6683 39.8525 48.1279 39.8525C47.5941 39.8525 47.2051 40.0885 46.9609 40.5605C46.7168 41.0293 46.5947 41.7829 46.5947 42.8213Z" fill="black"/>
<g clip-path="url(#clip1_1296_1864)">
<path d="M8.3348 53.9309L8.03397 55.5648C8.30637 55.5589 8.51665 55.4906 8.6649 55.3605C8.81298 55.2305 8.91277 55.0262 8.96415 54.7478C9.01422 54.4752 8.99293 54.271 8.90031 54.1351C8.80783 53.9985 8.64535 53.9309 8.41322 53.9309H8.3348ZM5.33337 59.3633L6.59582 52.5078H8.89586C9.67393 52.5078 10.2519 52.6974 10.6302 53.076C11.0083 53.4548 11.1375 53.9698 11.0175 54.6211C10.9438 55.0215 10.7804 55.3635 10.527 55.647C10.2738 55.9299 9.93063 56.1562 9.4975 56.3251L10.3551 59.3633H8.23659L7.82296 56.7101L7.3342 59.3633H5.33337Z" fill="#90B823"/>
<path d="M12.6897 56.3542H13.7636C13.8136 56.082 13.8064 55.8777 13.7415 55.7418C13.6767 55.6052 13.5543 55.5372 13.3748 55.5372C13.2339 55.5372 13.1081 55.6037 12.997 55.7367C12.886 55.8696 12.7834 56.0753 12.6897 56.3542ZM15.0393 57.6827C14.8634 58.2463 14.5536 58.69 14.1098 59.014C13.6659 59.338 13.1434 59.5 12.5418 59.5C11.8356 59.5 11.3315 59.2818 11.0292 58.845C10.7273 58.4079 10.6505 57.7863 10.7994 56.9782C10.9487 56.1679 11.2575 55.5391 11.7256 55.0913C12.1938 54.6435 12.7745 54.4198 13.4676 54.4198C14.2228 54.4198 14.7502 54.6185 15.0498 55.016C15.349 55.4134 15.4251 56.0129 15.2775 56.8144C15.2603 56.9077 15.2462 56.9797 15.2357 57.0278C15.2251 57.0767 15.2128 57.1208 15.1988 57.1616H12.5408L12.5288 57.2273C12.4636 57.5814 12.4587 57.8349 12.5138 57.9881C12.5688 58.1416 12.6912 58.218 12.8808 58.218C13.0214 58.218 13.143 58.1743 13.2458 58.0869C13.3487 57.9991 13.4365 57.8642 13.5092 57.6827H15.0393Z" fill="#90B823"/>
<path d="M18.1761 59.2887C18.0321 59.3608 17.881 59.4136 17.7226 59.4481C17.5641 59.4827 17.3886 59.5 17.1956 59.5C16.5483 59.5 16.0801 59.2741 15.7907 58.8215C15.5011 58.3694 15.429 57.7489 15.5742 56.9599C15.7167 56.1867 16.0224 55.5699 16.4913 55.11C16.9602 54.6501 17.5133 54.4198 18.1509 54.4198C18.3274 54.4198 18.4889 54.4356 18.635 54.4664C18.7814 54.498 18.9153 54.5466 19.0374 54.6119L18.7659 56.0864C18.7106 56.0489 18.6519 56.0213 18.5896 56.0041C18.5275 55.9872 18.4588 55.9784 18.3836 55.9784C18.194 55.9784 18.0266 56.0665 17.8816 56.2414C17.7366 56.4166 17.6361 56.6565 17.5802 56.9599C17.5236 57.2666 17.5332 57.4973 17.6096 57.6527C17.6855 57.8073 17.8267 57.8848 18.0326 57.8848C18.0913 57.8848 18.156 57.876 18.226 57.8591C18.2961 57.8414 18.3717 57.8172 18.4528 57.7863L18.1761 59.2887Z" fill="#90B823"/>
<path d="M18.7361 59.3633L20.1136 51.8834H21.9329L20.5556 59.3633H18.7361Z" fill="#90B823"/>
<path d="M23.5089 56.9599C23.4462 57.3015 23.4358 57.5579 23.4776 57.7298C23.5195 57.9021 23.6139 57.9881 23.7612 57.9881C23.9083 57.9881 24.0365 57.8999 24.1459 57.7225C24.2554 57.5461 24.3405 57.2916 24.4017 56.9599C24.4638 56.622 24.4728 56.364 24.4285 56.187C24.3845 56.0107 24.2887 55.9218 24.1417 55.9218C23.9977 55.9218 23.8721 56.01 23.7646 56.1855C23.657 56.3604 23.5721 56.6183 23.5089 56.9599ZM23.9981 59.364L24.0958 58.8333C23.8732 59.0647 23.6568 59.234 23.4459 59.3406C23.2351 59.4467 23.0169 59.5 22.7911 59.5C22.291 59.5 21.9405 59.277 21.7401 58.8311C21.5393 58.3851 21.5128 57.7614 21.6603 56.9599C21.8091 56.1525 22.0641 55.5269 22.4249 55.0839C22.7861 54.6413 23.2201 54.4198 23.7267 54.4198C23.9557 54.4198 24.1552 54.4723 24.3255 54.577C24.4959 54.6817 24.65 54.8485 24.7877 55.077L24.8836 54.5557H26.7029L25.8177 59.364H23.9981Z" fill="#90B823"/>
<path d="M26.4845 59.3633L27.37 54.555H29.1159L28.9842 55.2687C29.2051 54.9932 29.4429 54.7897 29.6975 54.6582C29.9522 54.5267 30.2333 54.4613 30.5405 54.4613C30.8283 54.4613 31.0537 54.5274 31.2173 54.6611C31.3808 54.7941 31.48 54.9969 31.5149 55.2687C31.7062 54.9932 31.9235 54.7897 32.1668 54.6582C32.4099 54.5267 32.687 54.4613 32.9976 54.4613C33.3801 54.4613 33.6518 54.5708 33.8125 54.7897C33.973 55.0094 34.0148 55.3282 33.9375 55.7477L33.2716 59.3633H31.4524L31.9676 56.5647C31.9953 56.4147 31.9882 56.3035 31.9458 56.2318C31.9033 56.1594 31.8249 56.1231 31.7105 56.1231C31.6058 56.1231 31.5165 56.165 31.4423 56.248C31.3683 56.331 31.3177 56.446 31.2907 56.5929L30.7806 59.3633H28.9709L29.4863 56.5647C29.5139 56.4147 29.5066 56.3035 29.4642 56.2318C29.422 56.1594 29.3435 56.1231 29.2292 56.1231C29.1213 56.1231 29.0293 56.165 28.9536 56.248C28.8778 56.331 28.8266 56.446 28.7994 56.5929L28.2893 59.3633H26.4845Z" fill="#90B823"/>
<path d="M36.0671 56.3542H37.141C37.1913 56.082 37.184 55.8777 37.1191 55.7418C37.0543 55.6052 36.9317 55.5372 36.7522 55.5372C36.6116 55.5372 36.4855 55.6037 36.3745 55.7367C36.2634 55.8696 36.1608 56.0753 36.0671 56.3542ZM38.4165 57.6827C38.2408 58.2463 37.9312 58.69 37.4872 59.014C37.0436 59.338 36.5208 59.5 35.9193 59.5C35.2131 59.5 34.7088 59.2818 34.4069 58.845C34.1047 58.4079 34.0279 57.7863 34.1769 56.9782C34.3261 56.1679 34.6347 55.5391 35.1032 55.0913C35.5713 54.6435 36.1519 54.4198 36.845 54.4198C37.6005 54.4198 38.1276 54.6185 38.4272 55.016C38.7266 55.4134 38.8027 56.0129 38.6551 56.8144C38.6377 56.9077 38.6236 56.9797 38.6133 57.0278C38.6026 57.0767 38.5905 57.1208 38.5763 57.1616H35.9183L35.9062 57.2273C35.841 57.5814 35.836 57.8349 35.8912 57.9881C35.9463 58.1416 36.0687 58.218 36.2584 58.218C36.399 58.218 36.5207 58.1743 36.6232 58.0869C36.7261 57.9991 36.8139 57.8642 36.8865 57.6827H38.4165Z" fill="#90B823"/>
<path d="M40.9951 56.9687H41.7894L41.8553 54.4282L40.9951 56.9687ZM38.2543 59.3633L41.086 52.5078H43.337L43.6387 59.3633H41.6919L41.7258 58.3536H40.5439L40.2059 59.3633H38.2543Z" fill="#007535"/>
<path d="M46.3817 55.8936C46.2507 56.6048 46.2102 57.0911 46.2599 57.3542C46.3096 57.6172 46.4569 57.7487 46.7021 57.7487C46.944 57.7487 47.137 57.6193 47.281 57.3611C47.4249 57.1029 47.5634 56.6136 47.6958 55.8936C47.8285 55.1737 47.8703 54.6844 47.822 54.4243C47.773 54.1642 47.6278 54.0342 47.386 54.0342C47.1408 54.0342 46.9449 54.1661 46.7986 54.4287C46.652 54.6917 46.5129 55.1803 46.3817 55.8936ZM47.2009 60.4717L46.6118 59.4905C46.5889 59.4905 46.5534 59.492 46.5055 59.4949C46.4573 59.4979 46.4221 59.4997 46.3992 59.4997C45.5392 59.4997 44.9311 59.1901 44.5742 58.57C44.2179 57.9506 44.1438 57.0735 44.3524 55.9407C44.5613 54.8078 44.9574 53.9295 45.5413 53.3069C46.1252 52.6839 46.8421 52.3724 47.6923 52.3724C48.5389 52.3724 49.1379 52.6828 49.4894 53.3043C49.841 53.9255 49.9121 54.8045 49.7027 55.9407C49.5822 56.5953 49.3993 57.1632 49.1535 57.645C48.908 58.127 48.5941 58.534 48.2126 58.8661L48.9346 59.7392L47.2009 60.4717Z" fill="#007535"/>
<path d="M50.0682 56.9129L50.8792 52.5086H52.8752L52.0304 57.0962C51.9934 57.2963 52.0038 57.4444 52.0614 57.5396C52.119 57.6351 52.2265 57.6827 52.3834 57.6827C52.5433 57.6827 52.6698 57.6351 52.7628 57.5396C52.8555 57.4444 52.9203 57.2963 52.9572 57.0962L53.8022 52.5086H55.808L54.9969 56.9129C54.8319 57.8084 54.5128 58.463 54.0391 58.8781C53.5655 59.2928 52.9019 59.5 52.0487 59.5C51.1986 59.5 50.6149 59.2928 50.2972 58.8781C49.9797 58.463 49.9032 57.8084 50.0682 56.9129Z" fill="#007535"/>
<path d="M55.3691 59.3633L56.6315 52.5078H58.6324L57.3702 59.3633H55.3691Z" fill="#007535"/>
</g>
<rect x="0.5" y="0.5" width="63" height="63" rx="3.5" stroke="#A4C929"/>
<defs>
<filter id="filter0_d_1296_1864" x="18.8" y="4.44727" width="29.2" height="19.7852" filterUnits="userSpaceOnUse" color-interpolation-filters="sRGB">
<feFlood flood-opacity="0" result="BackgroundImageFix"/>
<feColorMatrix in="SourceAlpha" type="matrix" values="0 0 0 0 0 0 0 0 0 0 0 0 0 0 0 0 0 0 127 0" result="hardAlpha"/>
<feOffset dx="-1" dy="1"/>
<feGaussianBlur stdDeviation="0.5"/>
<feColorMatrix type="matrix" values="0 0 0 0 0 0 0 0 0 0 0 0 0 0 0 0 0 0 0.3 0"/>
<feBlend mode="normal" in2="BackgroundImageFix" result="effect1_dropShadow_1296_1864"/>
<feBlend mode="normal" in="SourceGraphic" in2="effect1_dropShadow_1296_1864" result="shape"/>
</filter>
<clipPath id="clip0_1296_1864">
<rect width="32" height="32.3368" fill="white" transform="translate(16 2.02148)"/>
</clipPath>
<clipPath id="clip1_1296_1864">
<rect width="53.3333" height="8.59799" fill="white" transform="translate(5.33337 51.874)"/>
</clipPath>
</defs>
</svg>
