<svg width="160" height="100" viewBox="0 0 160 100" fill="none" xmlns="http://www.w3.org/2000/svg">
<g clip-path="url(#clip0_1639_26761)">
<path d="M27.6493 69.6912C27.5124 69.6912 27.3755 69.6912 27.2386 69.5517C27.2386 69.5517 27.1019 69.5517 27.1019 69.4119L1.09666 50.6944C0.959789 50.5549 0.959791 50.5549 0.822922 50.4151C0.822922 50.4151 0.822922 50.4151 0.822922 50.2754C0.822922 50.1357 0.822922 49.9961 0.822922 49.8564L5.47647 37.9834C5.47647 37.8437 5.47647 37.704 5.61334 37.704C5.61334 37.704 5.61334 37.704 5.75021 37.5643H5.88708L22.5851 31.1389C22.5851 31.1389 22.5851 31.1389 22.722 31.1389H22.8589C22.9957 31.1389 22.9957 31.1389 23.1326 31.1389L34.7664 36.3072C34.9033 36.3072 35.0402 36.4469 35.0402 36.5865C35.0402 36.5865 35.0402 36.5865 35.0402 36.7262C35.0402 36.8659 35.1771 37.0056 35.0402 37.1453L28.3337 69.1326C28.3337 69.1326 28.3337 69.1326 28.3337 69.2722C28.3337 69.4119 28.1968 69.4119 28.1968 69.5517L28.0599 69.6912C27.923 69.6912 27.923 69.6912 27.6493 69.6912C27.7861 69.6912 27.7861 69.6912 27.6493 69.6912ZM16.9735 52.5104L26.6912 66.3389L24.5013 49.7167L16.9735 52.5104ZM4.38152 51.2532L24.6382 65.9198L15.4679 52.7897L4.38152 51.2532ZM25.7332 48.8786L27.923 64.8023L33.261 39.6595L25.7332 48.8786ZM7.25577 38.5421L16.1523 51.2532L24.2276 48.1802L22.1746 32.9548L7.25577 38.5421ZM2.60223 49.5771L14.373 51.1134L6.29769 39.6595L2.60223 49.5771ZM23.68 33.2342L25.4594 46.923L33.261 37.285L23.68 33.2342Z" fill="#4B4B4B"/>
<path d="M46.2642 51.113C47.6329 51.3922 49.8228 51.6717 51.1915 51.6717C53.9289 51.6717 55.0238 50.6939 55.0238 49.1574C55.0238 47.6209 54.0658 47.3415 51.0546 46.2241C48.4541 45.2463 45.8537 44.1288 45.8537 40.6368C45.8537 37.1447 48.3172 34.9098 53.1077 34.9098C54.6132 34.9098 56.3925 35.1892 58.035 35.4685L57.6244 38.8209C56.3925 38.5415 54.4765 38.2622 52.9709 38.2622C51.3284 38.2622 49.6859 38.6812 49.6859 40.3574C49.6859 42.0336 51.4653 42.4527 53.792 43.2907C56.2557 44.2685 58.7193 45.5257 58.7193 49.0177C58.7193 52.6495 56.1188 55.0241 51.0546 55.0241C49.4123 55.0241 47.2222 54.7448 45.5799 54.4653L46.2642 51.113Z" fill="black"/>
<path d="M66.5223 40.3577C70.0809 40.3577 71.997 42.5926 71.997 46.6434C71.997 47.3418 71.997 48.3196 71.7232 49.018H64.0587C64.3323 50.9735 65.1536 51.8116 67.0697 51.8116C68.3015 51.8116 69.8071 51.3926 70.902 50.9735L71.8601 53.9069C70.4914 54.4656 68.7122 54.8847 66.9328 54.8847C62.69 54.8847 60.4999 52.5101 60.4999 47.6212C60.5001 43.0116 62.69 40.3577 66.5223 40.3577ZM68.5753 46.2243C68.5753 44.4085 67.8908 43.5704 66.3854 43.5704C64.8798 43.5704 64.1954 44.5481 64.0587 46.2243H68.5753Z" fill="black"/>
<path d="M74.8695 40.637H77.3332L77.6069 41.6148C78.4281 41.0561 79.6599 40.3577 81.4393 40.3577C82.9447 40.3577 84.1765 40.9164 84.861 41.8942C86.0928 41.0561 87.3246 40.3577 89.1038 40.3577C92.115 40.3577 93.6206 42.4529 93.6206 45.3862V54.7449H90.0621V45.8053C90.0621 44.4085 89.5145 43.5704 88.1458 43.5704C87.4615 43.5704 86.6402 43.8497 85.819 44.2688C85.819 44.6878 85.9559 44.9672 85.9559 45.3862V54.7449H82.3973V45.8053C82.3973 44.4085 81.8498 43.5704 80.4811 43.5704C79.6599 43.5704 78.8388 43.8497 78.2912 44.2688V54.7449H74.7326V40.637H74.8695Z" fill="black"/>
<path d="M101.424 46.0847C102.108 46.0847 102.792 46.0847 103.477 46.2243V45.8053C103.477 44.2688 102.792 43.5704 101.013 43.5704C99.9181 43.5704 98.2756 43.8497 97.1806 43.9894L96.6331 40.9164C97.8649 40.637 99.5074 40.3577 101.287 40.3577C104.982 40.3577 106.898 42.0339 106.898 45.3862V54.7449H104.435L104.024 53.6276C103.203 54.3259 101.971 55.0244 100.192 55.0244C97.5913 55.0244 95.5381 53.4879 95.5381 50.5545C95.675 47.6212 97.7282 46.0847 101.424 46.0847ZM101.15 52.0911C102.108 52.0911 103.066 51.672 103.614 51.2528V48.7386C102.929 48.7386 102.108 48.5989 101.697 48.5989C100.192 48.5989 99.3705 49.1577 99.3705 50.4148C99.2336 51.5323 100.055 52.0911 101.15 52.0911Z" fill="black"/>
<path d="M110.045 40.6361H112.508L112.782 41.6139C114.014 40.7758 115.382 40.217 116.888 40.217C120.173 40.217 121.405 42.3123 121.405 45.1059V54.6043H117.846V45.6647C117.846 44.2678 117.299 43.5694 115.793 43.5694C114.835 43.5694 113.877 43.8488 113.329 44.2678V54.744H109.771V40.6361H110.045Z" fill="black"/>
<path d="M124.963 43.5702H122.91V40.9162L125.1 40.7765L125.373 36.7257H128.521V40.6368H131.943V43.5702H128.521V50.5543C128.521 51.5321 128.795 51.8114 129.616 51.8114C130.301 51.8114 130.985 51.6717 131.669 51.3924L132.354 54.186C131.396 54.605 130.301 54.8845 129.069 54.8845C126.742 54.8845 125.1 53.6272 125.1 50.6939V43.5702H124.963Z" fill="black"/>
<path d="M134.819 35.0486H138.378V38.401H134.819V35.0486ZM134.819 40.6359H138.378V54.6041H134.819V40.6359Z" fill="black"/>
<path d="M145.222 47.4817C143.853 45.5261 142.348 43.0118 140.979 40.6372H144.675C145.496 42.1737 146.454 43.5705 147.412 44.9674H147.549C148.507 43.5705 149.328 42.1737 150.286 40.6372H153.845C152.476 43.0118 150.834 45.5261 149.602 47.4817C150.971 49.4372 152.75 52.2308 154.119 54.6054H150.423C149.602 53.2086 148.507 51.3928 147.686 49.996H147.549C146.591 51.3928 145.496 53.2086 144.675 54.6054H140.979C142.074 52.2308 143.853 49.4372 145.222 47.4817Z" fill="black"/>
<path d="M157.674 41.6155C156.305 41.6155 155.347 40.4981 155.347 39.2409C155.347 37.9838 156.442 36.8663 157.674 36.8663C159.043 36.8663 160.001 37.9838 160.001 39.2409C160.001 40.4981 158.906 41.6155 157.674 41.6155ZM157.674 37.1457C156.579 37.1457 155.621 38.1235 155.621 39.2409C155.621 40.3584 156.579 41.3362 157.674 41.3362C158.769 41.3362 159.727 40.3584 159.727 39.2409C159.727 38.1235 158.769 37.1457 157.674 37.1457ZM158.632 40.7774H158.358C158.358 40.7774 158.222 40.7774 158.222 40.6378L157.537 39.5203H157.4H156.99V40.6378C156.99 40.6378 156.99 40.7774 156.853 40.7774H156.579C156.442 40.7774 156.442 40.6378 156.442 40.6378V37.8441C156.442 37.7044 156.442 37.7044 156.579 37.7044C156.716 37.7044 156.99 37.7044 157.263 37.7044C157.948 37.7044 158.358 37.9838 158.358 38.6822C158.358 39.1013 158.085 39.3806 157.811 39.5203L158.495 40.6378C158.769 40.6378 158.769 40.6378 158.632 40.7774C158.769 40.6378 158.769 40.7774 158.632 40.7774ZM158.222 38.5425C158.222 38.1235 158.085 38.1235 157.537 38.1235C157.4 38.1235 157.4 38.1235 157.263 38.1235H157.127V39.1013C157.263 39.1013 157.4 39.1013 157.537 39.1013C157.948 39.1013 158.222 38.9616 158.222 38.5425Z" fill="black"/>
<path d="M48.7275 60.3334H49.8226C50.5068 62.1492 51.4649 65.2223 52.1493 67.7366H51.328L50.7806 65.9208H47.6325L47.0852 67.7366H46.2638C47.0852 65.2223 48.0432 62.1492 48.7275 60.3334ZM50.6437 65.0825C50.2331 63.6857 49.8224 62.4287 49.275 61.0319C48.8644 62.2889 48.317 63.6857 47.9063 65.0825H50.6437Z" fill="black"/>
<path d="M53.243 60.3334H54.0644V67.7366H53.243V60.3334Z" fill="black"/>
<path d="M55.7083 60.3334H56.5296V67.7366H55.7083V60.3334Z" fill="black"/>
<path d="M62.4157 64.5232C62.6894 64.5232 63.2368 64.5232 63.5106 64.6628V64.104C63.5106 63.266 63.0999 62.9867 62.2788 62.9867C61.7312 62.9867 61.1838 63.1263 60.7732 63.266L60.6363 62.5677C61.0469 62.4279 61.7312 62.2882 62.4157 62.2882C63.5106 62.2882 64.3317 62.7072 64.3317 64.104V67.7359H63.6475V67.3168C63.2368 67.5961 62.6894 67.8756 62.005 67.8756C61.0469 67.8756 60.2258 67.3168 60.2258 66.1993C60.3625 65.0818 61.1838 64.5232 62.4157 64.5232ZM62.1419 67.1771C62.6894 67.1771 63.0999 67.0374 63.5106 66.6183V65.2215C63.0999 65.2215 62.6894 65.2215 62.4157 65.2215C61.5943 65.2215 61.0469 65.501 61.0469 66.1993C61.1838 66.8978 61.5943 67.1771 62.1419 67.1771Z" fill="black"/>
<path d="M66.1111 60.3334H66.9323V62.708C67.3429 62.4287 67.7536 62.2889 68.301 62.2889C69.6697 62.2889 70.3541 63.127 70.3541 65.0825C70.3541 66.8985 69.6697 67.8763 68.0272 67.8763C67.3429 67.8763 66.6587 67.7366 66.1111 67.5968V60.3334ZM67.8905 67.1778C69.1223 67.1778 69.3959 66.4793 69.3959 65.0825C69.3959 63.6857 68.9854 62.9874 68.0272 62.9874C67.6167 62.9874 67.206 63.127 66.7954 63.4064V67.0381C67.206 67.0381 67.6167 67.1778 67.8905 67.1778Z" fill="black"/>
<path d="M73.6393 62.2882C75.2818 62.2882 75.966 63.4057 75.966 65.0818C75.966 66.7581 75.2818 67.8756 73.6393 67.8756C71.9968 67.8756 71.3125 66.7581 71.3125 65.0818C71.3125 63.4057 71.9968 62.2882 73.6393 62.2882ZM73.6393 67.1771C74.8711 67.1771 75.1449 66.3391 75.1449 65.0818C75.1449 63.9645 74.8711 62.9867 73.6393 62.9867C72.4075 62.9867 72.1337 63.8247 72.1337 65.0818C72.1337 66.1993 72.5444 67.1771 73.6393 67.1771Z" fill="black"/>
<path d="M77.3333 62.4288H78.0176V66.0607C78.0176 66.8987 78.4283 67.178 78.9758 67.178C79.5232 67.178 80.0708 66.8987 80.4813 66.6194V62.4288H81.3026V67.7367H80.755V67.178C80.3445 67.4575 79.797 67.7367 78.9758 67.7367C78.0176 67.7367 77.3333 67.178 77.3333 66.0607V62.4288Z" fill="black"/>
<path d="M83.219 63.1265H82.5348V62.5679H83.3559V61.0314H84.0404V62.5679H85.5458V63.1265H84.0404V66.3393C84.0404 66.898 84.1771 67.1773 84.5877 67.1773C84.8615 67.1773 85.1353 67.1773 85.4089 67.0376L85.6827 67.7361C85.4089 67.8758 84.9984 68.0154 84.5877 68.0154C83.7666 68.0154 83.3559 67.5964 83.3559 66.479V63.1265H83.219Z" fill="black"/>
<path d="M88.9687 65.0825C88.9687 63.2667 89.6532 62.2889 91.1586 62.2889C91.5693 62.2889 91.9799 62.2889 92.3904 62.4287V60.3334H93.0749V67.7366H92.5273L92.3904 67.3176C91.9799 67.5968 91.5693 67.8763 90.885 67.8763C89.6532 67.8763 88.9687 67.0381 88.9687 65.0825ZM92.3904 66.6191V63.127C91.9799 62.9874 91.5693 62.9874 91.2955 62.9874C90.2005 62.9874 89.7901 63.6857 89.7901 65.0825C89.7901 66.4793 90.2005 67.1778 91.0219 67.1778C91.4324 67.1778 91.9799 66.8985 92.3904 66.6191Z" fill="black"/>
<path d="M96.4955 64.5232C96.7692 64.5232 97.3166 64.5232 97.5904 64.6628V64.104C97.5904 63.266 97.1797 62.9867 96.3586 62.9867C95.8112 62.9867 95.2636 63.1263 94.853 63.266L94.7161 62.5677C95.1268 62.4279 95.8112 62.2882 96.4955 62.2882C97.5904 62.2882 98.4116 62.7072 98.4116 64.104V67.7359H97.7273V67.3168C97.3166 67.5961 96.7692 67.8756 96.0848 67.8756C95.1268 67.8756 94.3056 67.3168 94.3056 66.1993C94.4425 65.0818 95.2636 64.5232 96.4955 64.5232ZM96.2217 67.1771C96.7692 67.1771 97.1797 67.0374 97.5904 66.6183V65.2215C97.1797 65.2215 96.7692 65.2215 96.4955 65.2215C95.6743 65.2215 95.1268 65.501 95.1268 66.1993C95.2636 66.8978 95.6743 67.1771 96.2217 67.1771Z" fill="black"/>
<path d="M100.327 63.1265H99.6423V62.5679H100.464V61.0314H101.148V62.5679H102.654V63.1265H101.148V66.3393C101.148 66.898 101.285 67.1773 101.695 67.1773C101.969 67.1773 102.243 67.1773 102.517 67.0376L102.79 67.7361C102.517 67.8758 102.106 68.0154 101.695 68.0154C100.874 68.0154 100.464 67.5964 100.464 66.479V63.1265H100.327Z" fill="black"/>
<path d="M105.527 64.5232C105.801 64.5232 106.348 64.5232 106.622 64.6628V64.104C106.622 63.266 106.211 62.9867 105.39 62.9867C104.842 62.9867 104.295 63.1263 103.884 63.266L103.747 62.5677C104.158 62.4279 104.842 62.2882 105.527 62.2882C106.622 62.2882 107.443 62.7072 107.443 64.104V67.7359H106.759V67.3168C106.348 67.5961 105.801 67.8756 105.116 67.8756C104.158 67.8756 103.337 67.3168 103.337 66.1993C103.337 65.0818 104.158 64.5232 105.527 64.5232ZM105.253 67.1771C105.801 67.1771 106.211 67.0374 106.622 66.6183V65.2215C106.211 65.2215 105.801 65.2215 105.527 65.2215C104.705 65.2215 104.158 65.501 104.158 66.1993C104.158 66.8978 104.569 67.1771 105.253 67.1771Z" fill="black"/>
</g>
<defs>
<clipPath id="clip0_1639_26761">
<rect width="160" height="39.1111" fill="white" transform="translate(0 31)"/>
</clipPath>
</defs>
</svg>
