<svg width="160" height="100" viewBox="0 0 160 100" fill="none" xmlns="http://www.w3.org/2000/svg">
<path d="M43.9533 26.3834H4.6901C2.91548 26.3834 1.43665 27.8809 1.43665 29.6778V69.2106C1.43665 71.0075 2.91548 72.5051 4.6901 72.5051H43.9533C45.728 72.5051 47.2069 71.0075 47.2069 69.2106V29.6778C47.2069 27.806 45.728 26.3834 43.9533 26.3834ZM30.1262 61.0495C26.1333 65.0926 19.7743 65.2424 15.5596 61.5735L15.4857 61.4988C15.2638 61.2742 15.1899 60.8248 15.4857 60.5253L29.6825 46.2247C29.9782 46.0001 30.348 46.0001 30.6438 46.2247C34.3409 50.5673 34.1931 57.0064 30.1262 61.0495ZM33.0838 38.2133L18.887 52.514C18.5912 52.7386 18.2215 52.7386 17.9257 52.514C14.2286 48.2462 14.3765 41.8072 18.3694 37.7641C22.3622 33.721 28.7213 33.5712 32.936 37.24C32.936 37.24 33.01 37.24 33.01 37.3148C33.3796 37.5395 33.3796 37.9887 33.0838 38.2133Z" fill="black"/>
<path fill-rule="evenodd" clip-rule="evenodd" d="M67.1718 47.1987C65.1753 46.3751 63.9182 45.851 63.9182 44.653C63.9182 43.6796 64.6578 42.7812 66.3584 42.7812C67.3936 42.7812 68.2809 43.2304 68.9464 44.1289C69.39 44.653 69.8338 44.9525 70.3513 44.9525C71.3864 44.9525 72.1998 44.1289 72.1998 43.1555C72.1998 42.7812 72.1258 42.4068 71.904 42.1822C70.7949 40.4601 68.5027 39.2622 66.3584 39.2622C63.4007 39.2622 60.3691 41.134 60.3691 44.7279C60.3691 48.3967 63.3267 49.5947 65.7669 50.4931C67.6893 51.2418 69.39 51.9156 69.39 53.488C69.39 54.686 68.2809 55.884 66.2104 55.884C65.5451 55.884 64.362 55.7342 63.5487 54.7609C63.1049 54.2367 62.5873 54.012 62.1438 54.012C61.1824 54.012 60.2951 54.8358 60.2951 55.8091C60.2951 56.1833 60.4431 56.5578 60.6649 56.8573C61.774 58.5793 64.288 59.4029 66.2104 59.4029C69.464 59.4029 73.0131 57.3064 73.0131 53.488C72.9393 49.4449 69.7598 48.172 67.1718 47.1987ZM140.522 39.1873H140.448C136.899 39.1873 134.089 42.0324 134.089 45.5515V67.7138C134.089 68.6871 134.903 69.5107 135.864 69.5107C136.825 69.5107 137.639 68.6871 137.639 67.7138V58.5044C138.304 59.1033 139.413 59.4029 140.448 59.4029H140.522C144.072 59.4029 146.734 56.3331 146.734 52.8142V45.4017C146.734 41.8827 144.072 39.1873 140.522 39.1873ZM143.332 52.9638C143.332 54.9107 142.075 55.7342 140.596 55.7342H140.522C138.97 55.7342 137.786 54.9107 137.786 52.9638V45.5515C137.786 44.054 139.044 42.7812 140.522 42.7812H140.596C142.149 42.7812 143.332 43.9791 143.332 45.5515V52.9638ZM107.766 39.1873H107.692C105.917 39.1873 104.365 39.936 103.256 41.0591C102.146 39.936 100.52 39.1873 98.8189 39.1873H98.7451C95.3438 39.1873 92.534 41.9576 92.534 45.4766V57.6809C92.6078 58.6542 93.3473 59.4029 94.3084 59.4029C95.2698 59.4029 96.0091 58.6542 96.0831 57.6809V45.4766C96.0831 43.9791 97.2662 42.7812 98.7451 42.7812H98.8189C100.298 42.7812 101.407 43.9043 101.481 45.4017V57.6809C101.57 58.5658 102.186 59.4029 103.182 59.4029C104.143 59.4029 104.882 58.6542 104.956 57.6809V45.3268C105.03 43.9043 106.213 42.7063 107.618 42.7063H107.692C109.171 42.7063 110.354 43.9043 110.354 45.4017V57.6809C110.428 58.6542 111.167 59.4029 112.129 59.4029C113.09 59.4029 113.829 58.6542 113.903 57.6809V45.4766C113.977 42.0324 111.167 39.1873 107.766 39.1873ZM86.7664 39.1873C85.8051 39.1873 85.0658 39.936 84.9918 40.9094V53.1136C84.9918 54.6111 83.8087 55.8091 82.256 55.8091H82.182C80.7031 55.8091 79.4462 54.6111 79.4462 53.1136V40.8345C79.3722 39.8611 78.6329 39.1124 77.6716 39.1124C76.7102 39.1124 75.9709 39.8611 75.8969 40.8345V53.0387C75.8969 56.4829 78.7067 59.328 82.182 59.328H82.256C85.7313 59.328 88.5411 56.4829 88.5411 53.0387V40.9094C88.5411 39.936 87.7276 39.1873 86.7664 39.1873ZM128.766 39.1873C127.804 39.1873 127.065 39.936 126.991 40.9094V53.1136C126.991 54.6111 125.808 55.8091 124.255 55.8091H124.181C122.702 55.8091 121.445 54.6111 121.445 53.1136V40.8345C121.371 39.8611 120.632 39.1124 119.671 39.1124C118.709 39.1124 117.97 39.8611 117.896 40.8345V53.0387C117.896 56.4829 120.706 59.328 124.181 59.328H124.255C127.73 59.328 130.54 56.4829 130.54 53.0387V40.9094C130.466 39.936 129.727 39.1873 128.766 39.1873Z" fill="black"/>
<path d="M155.386 42.9309C155.83 42.856 156.125 42.4817 156.125 42.0324C156.125 41.4334 155.682 41.0591 155.016 41.0591H154.129C153.907 41.0591 153.759 41.2088 153.759 41.4334V43.9042C153.759 44.1289 153.907 44.2786 154.129 44.2786C154.351 44.2786 154.499 44.1289 154.499 43.9042V43.0058L155.386 44.1289C155.46 44.2786 155.534 44.2786 155.756 44.2786C156.051 44.2786 156.125 44.054 156.125 43.9042C156.125 43.7545 156.052 43.6796 155.978 43.6047L155.386 42.9309ZM155.09 42.4068H154.646V41.6581H155.09C155.312 41.6581 155.46 41.8078 155.46 42.0324C155.46 42.1822 155.312 42.4068 155.09 42.4068ZM155.016 39.1873C153.094 39.1873 151.467 40.7596 151.467 42.7811C151.467 44.7278 153.02 46.375 155.016 46.375C156.939 46.375 158.566 44.8027 158.566 42.7811C158.566 40.8345 157.013 39.1873 155.016 39.1873ZM155.016 45.4766C153.537 45.4766 152.354 44.2786 152.354 42.7811C152.354 41.2837 153.537 40.0857 155.016 40.0857C156.495 40.0857 157.678 41.2837 157.678 42.7811C157.678 44.2786 156.495 45.4766 155.016 45.4766Z" fill="black"/>
</svg>
